<svg width="575" height="531" viewBox="0 0 575 531" fill="none" xmlns="http://www.w3.org/2000/svg">
<path d="M320.227 58.6067L320.221 58.614C310.547 70.0905 304.166 90.0279 299.21 110.708C297.054 119.702 295.178 128.79 293.415 137.33C293.156 138.582 292.9 139.822 292.646 141.049C290.662 150.623 288.791 159.37 286.793 166.253M320.227 58.6067L285.832 165.98M320.227 58.6067C329.723 47.1261 342.61 43.8013 357.677 45.3576C372.793 46.9189 389.975 53.3871 407.825 61.3669L407.826 61.3676C425.878 69.4031 444.435 78.7569 458.745 89.7857C473.074 100.83 482.966 113.415 484.045 127.878L484.046 127.888C484.651 135.096 483.047 142.853 480.171 151.236C477.408 159.291 473.499 167.843 469.329 176.969L468.817 178.088C460.115 197.137 450.471 218.591 448.264 242.571L448.264 242.576C446.447 263.537 450.327 286.359 453.559 305.365C454.007 308.003 454.443 310.567 454.85 313.042C456.527 323.255 457.691 331.89 457.246 338.049C457.023 341.129 456.404 343.461 455.349 345.044C454.333 346.568 452.869 347.468 450.71 347.629M320.227 58.6067L449.26 242.662C447.455 263.485 451.31 286.168 454.543 305.188C458.673 329.487 461.787 347.806 450.783 348.626M286.793 166.253C286.793 166.255 286.792 166.257 286.792 166.259L285.832 165.98M286.793 166.253C286.794 166.253 286.794 166.252 286.794 166.251L285.832 165.98M286.793 166.253C284.862 173.101 282.727 178.162 279.79 181.956C276.83 185.78 273.107 188.252 268.129 190.017C263.185 191.77 256.975 192.835 249.019 193.844C245.371 194.306 241.339 194.759 236.877 195.26C236.465 195.307 236.049 195.353 235.629 195.4C230.665 195.958 225.178 196.581 219.095 197.345L219.089 197.346C194.672 200.269 160.579 205.361 128.648 213.734C96.66 222.121 67.062 233.749 51.4355 249.626M285.832 165.98C279.198 189.501 270.48 190.48 236.764 194.267C231.477 194.861 225.575 195.523 218.97 196.353C170.096 202.204 82.3925 216.746 50.7216 248.926C19.3189 280.957 44.0667 330.207 84.1402 353.959M51.4355 249.626C51.4356 249.626 51.4356 249.626 51.4356 249.626L50.7224 248.927L51.4343 249.628C51.4347 249.627 51.4351 249.627 51.4355 249.626ZM51.4355 249.626C36.0639 265.305 34.3982 285.19 41.563 304.194C48.7415 323.235 64.7764 341.319 84.6482 353.097M84.6482 353.097C84.6479 353.097 84.6476 353.097 84.6472 353.097L84.1402 353.959M84.6482 353.097C84.6488 353.098 84.6495 353.098 84.6501 353.099L84.1402 353.959M84.6482 353.097C124.235 376.382 179.092 374.393 217.641 351.417C227.271 345.677 235.91 338.633 244.15 331.345C247.241 328.609 250.287 325.83 253.308 323.073C258.306 318.512 263.238 314.011 268.203 309.871C284.184 296.546 300.935 286.576 323.014 289.129L323.015 289.129C334.108 290.429 346.472 294.86 359.036 300.705C371.61 306.554 384.449 313.85 396.495 320.927C399.422 322.647 402.301 324.352 405.117 326.021C413.911 331.231 422.098 336.082 429.257 339.876C433.981 342.379 438.225 344.405 441.875 345.762C445.545 347.128 448.509 347.777 450.71 347.629M84.1402 353.959C124.064 377.442 179.313 375.425 218.153 352.276C231.53 344.302 242.979 333.854 254.011 323.786C275.008 304.623 294.496 286.838 322.899 290.122C347.42 292.997 378.554 311.444 404.59 326.871C425.001 338.965 442.279 349.203 450.783 348.626M450.783 348.626L450.708 347.629C450.709 347.629 450.709 347.629 450.71 347.629M450.783 348.626L450.715 347.629C450.713 347.629 450.711 347.629 450.71 347.629" stroke="#E2CFC1" stroke-width="2"/>
<path d="M313.967 145.78L313.973 145.782C327.622 149.769 344.114 151.252 361.762 151.578C377.411 151.867 394.028 151.246 410.44 150.632C412.541 150.554 414.639 150.476 416.731 150.399C435.182 149.726 453.179 149.212 469.131 150.162C485.101 151.114 498.902 153.529 509.013 158.64L509.019 158.643C529.067 168.604 535.026 189.412 530.512 212.039C525.995 234.675 511.005 258.881 489.52 275.079L489.513 275.084C469.986 290.091 445.081 298.463 419.314 307.124C416.937 307.923 414.553 308.725 412.165 309.534C383.966 319.091 355.303 329.737 332.565 350.538C309.673 371.317 292.673 402.267 278.454 428.174L278.381 428.306C271.281 441.243 264.887 452.893 258.782 461.479C255.721 465.784 252.761 469.276 249.857 471.76C246.95 474.246 244.163 475.668 241.438 475.954C236.005 476.523 230.22 472.58 224.26 464.923C218.353 457.334 212.515 446.404 206.953 433.729C195.834 408.393 185.909 376.313 178.748 350.651C176.552 342.723 174.623 335.386 172.821 328.531C162.902 290.79 156.819 267.648 130.869 240.716C120.284 229.606 106.312 217.785 92.7765 206.334C86.7969 201.275 80.9026 196.288 75.4231 191.466C66.4514 183.572 58.592 176.123 53.2028 169.483C50.5086 166.163 48.4606 163.08 47.1965 160.274C45.9306 157.464 45.4855 155.011 45.8816 152.906L45.8823 152.903C46.6756 148.608 50.9687 145.085 58.2816 141.96C65.5153 138.869 75.3175 136.328 86.4485 133.768C89.9834 132.955 93.6498 132.141 97.4042 131.308C117.209 126.912 139.463 121.972 157.777 113.779L157.783 113.776C178.476 104.347 194.216 90.7745 206.539 80.1475C207.211 79.5681 207.873 78.9974 208.525 78.4367C214.859 72.9882 220.194 68.5311 224.842 65.9768C229.477 63.4293 233.149 62.9223 236.364 64.8877C238.035 65.9091 239.684 67.6379 241.398 70.0066C243.107 72.3676 244.835 75.2971 246.689 78.6555C247.689 80.4676 248.725 82.4033 249.811 84.4328C252.732 89.8912 256.017 96.0287 259.948 102.268C270.761 119.431 286.602 137.605 313.967 145.78Z" stroke="#E2CFC1" stroke-width="2"/>
<path d="M431.465 161.788C470.385 206.739 507.101 257.553 498.045 298.107C488.988 338.66 434.158 369.198 380.062 391.673C325.722 413.904 272.36 428.074 221.936 412.683C171.757 397.292 124.515 352.585 112.521 299.572C100.282 246.56 123.046 185.729 161.721 140.778C200.151 96.0715 254.736 67.7328 302.713 72.8631C350.934 77.9934 392.301 116.837 431.465 161.788Z" fill="#E2CFC1"/>
<path fill-rule="evenodd" clip-rule="evenodd" d="M194.617 133.079C197.326 133.16 200.208 135.235 202.41 132.917C205.013 130.195 203.336 125.608 205.502 122.561C208.996 117.634 216.44 116.937 221.611 114.247C228.495 110.681 233.404 104.457 239.833 100.276C241.406 99.2545 243.118 98.1202 244.988 97.634C247.137 97.0667 249.339 97.5205 251.523 97.1801C256.013 96.467 259.926 93.5821 263.77 91.5075C260.118 91.8641 259.559 89.0442 261.743 86.8725C264.031 84.6034 267.648 83.3553 270.688 82.2207C277.956 79.5303 284.77 78.7039 292.493 79.1091C295.882 79.2873 298.468 77.0993 301.927 77.0831C306.225 77.0669 310.646 78.5254 314.717 79.6923C322.142 81.7993 329.357 84.814 335.594 89.1413C342.181 93.6956 346.899 99.3518 350.078 106.353C351.424 109.303 352.909 112.188 354.237 115.154C355.792 118.655 358.046 119.952 361.348 122.042C367.9 126.208 372.529 132.35 376.391 138.687C377.893 141.167 379.047 144.83 381.143 146.92C383.537 149.303 386.647 149.417 387.258 153.225C388.062 158.266 381.947 167.034 389.232 169.967C391.294 170.794 395.906 170.486 396.238 173.468C396.535 176.013 392.551 176.645 390.525 176.191C396.482 181.588 403.332 186.061 408.992 191.766C411.369 194.165 414.111 197.082 414.356 200.486C414.583 203.727 412.137 205.98 409.586 207.86C411.63 209.53 412.12 212.301 412.137 214.683C412.137 216.045 411.823 217.082 412.33 218.379C412.924 219.886 414.146 220.94 414.461 222.56C415.107 225.899 414.198 228.022 416.295 231.086C417.92 233.468 419.807 235.931 419.335 238.897C418.846 241.96 418.078 243.857 419.178 246.968C420.332 250.242 421.869 253.435 422.271 256.904C422.9 262.609 419.755 267.957 415.317 271.733C410.041 276.207 403.506 277.39 396.588 277.827C390.7 278.2 384.602 278.395 379.623 281.717C373.857 285.558 375.133 289.967 376.338 295.59C377.579 301.393 374.015 307.617 372.599 313.192C369.524 325.315 368.511 339.383 360.858 349.853C359.198 352.122 360.387 354.813 360.124 357.535C359.827 360.582 359.915 363.208 360.544 366.222C361.103 368.897 361.889 371.619 361.68 374.375C361.487 376.887 359.286 379.091 359.304 381.473C359.374 387.567 382.331 397.778 373.543 404.731C370.101 407.454 362.204 405.801 358.133 405.736C350.114 405.623 342.112 405.574 334.092 405.428C318.333 405.152 302.557 404.504 286.797 404.423C271.387 404.342 255.855 405.687 240.48 404.731C233.037 404.277 225.647 402.835 218.169 402.997C213.242 403.094 208.473 404.796 203.598 404.747C190.477 404.618 208.612 387.713 211.425 384.747C216.265 379.658 221.017 374.537 225.07 368.864C228.967 363.419 232.391 357.665 236.724 352.511C240.445 348.07 244.499 343.84 244.586 337.924C244.691 331.555 249.286 327.746 252.203 322.252C255.261 316.515 257.236 310.258 259.647 304.278C260.8 301.425 262.354 298.411 262.966 295.396C263.56 292.43 262.547 289.642 261.865 286.758C260.38 280.485 259.053 275.623 253.933 271.02C248.884 266.482 243.328 262.463 237.912 258.314C232.234 253.97 225.839 249.74 221.261 244.327C217.33 239.675 214.727 234.149 211.967 228.865C209.067 223.306 206.183 217.714 202.707 212.431C200.086 208.428 196.138 201.442 191.071 199.838C188.328 198.962 185.515 199.757 183.803 197.05C182.143 194.424 183.645 192.317 185.008 189.983C188.031 184.781 185.393 178.282 185.323 172.707C185.288 170.032 185.585 167.374 186.615 164.862C187.786 161.993 190.372 159.757 190.581 156.58C190.931 151.199 186.196 146.726 186.528 141.28C186.738 137.05 189.586 132.933 194.617 133.079ZM248.482 341.863C246.019 347.373 242.053 352.008 238.454 356.887C234.732 361.944 231.622 367.357 227.848 372.381C224.092 377.357 219.864 382.025 215.566 386.611C211.356 391.101 206.498 395.315 203.58 400.695C207.005 400.631 210.185 399.221 213.539 398.767C216.859 398.313 220.214 398.524 223.533 398.799C230.434 399.383 237.283 400.404 244.219 400.728C258.196 401.392 272.173 399.837 286.168 400.08C300.075 400.323 313.965 400.841 327.855 401.117C342.042 401.409 356.299 402.608 370.485 401.408C369.664 395.071 361.47 391.7 357.452 387.276C355.809 391.635 353.329 398.248 348.419 400.339C343.352 402.494 339.107 396.336 336.049 393.548C327.086 385.396 317.302 377.276 306.872 370.777C302.172 367.859 297.42 365.218 293.366 361.506C289.418 357.892 285.818 353.986 280.699 351.733C275.51 349.464 269.727 348.718 264.206 347.47C261.376 346.838 258.424 346.222 255.75 345.12C253.287 344.115 251.138 342.43 248.482 341.863ZM264.573 303.84C262.756 308.378 261.831 313.16 260.188 317.746C258.528 322.398 255.611 326.53 253.305 330.923C251.924 333.548 249.286 336.595 252.203 339.01C255.82 342.025 262.494 342.835 267.072 343.824C271.824 344.845 276.646 345.704 281.206 347.341C286.081 349.091 289.872 351.992 293.454 355.428C300.373 362.057 308.969 366.465 316.604 372.316C324.763 378.589 332.991 384.91 340.504 391.862C341.605 392.884 343.719 395.882 345.397 396.076C347.161 396.287 348.121 394.618 349.03 393.467C351.913 389.755 354.849 384.877 354.132 380.112C353.573 376.465 350.9 372.527 348.926 369.35C346.427 365.331 343.02 361.895 340.609 357.811C338.355 353.986 336.504 349.918 333.603 346.466C330.668 342.981 326.894 340.647 322.876 338.394C312.62 332.608 303.307 325.591 293.663 318.994C288.963 315.785 284.141 312.544 278.795 310.323C276.279 309.27 273.571 308.67 271.073 307.6C268.714 306.612 266.879 304.91 264.573 303.84ZM271.702 298.459C267.404 298.459 266.67 300.955 270.513 302.868C274.881 305.056 279.861 306.239 284.299 308.362C295.113 313.516 304.251 321.49 314.018 328.103C323.243 334.342 333.341 338.054 339.613 347.373C342.601 351.814 344.75 356.692 347.877 361.068C351.11 365.574 353.957 370.209 356.962 374.845C357.311 369.529 355.18 364.375 355.355 359.059C355.53 354.18 354.744 350.112 351.913 345.914C346.34 337.632 338.984 329.804 330.825 323.646C326.492 320.372 321.863 317.406 316.674 315.428C311.729 313.564 306.488 312.463 301.788 310.064C291.951 305.072 283.565 298.443 271.702 298.459ZM240.987 347.308C240.969 347.308 240.969 347.308 240.987 347.308ZM360.002 158.736C366.345 158.833 373.019 164.976 367.236 170.259C363.043 174.084 355.443 173.371 350.061 173.955C344.173 174.587 337.168 175.85 334.949 181.701C332.974 186.92 335.071 193.533 341.622 194.489C340.487 191.783 345.553 188.979 347.126 187.326C350.009 184.295 351.686 180.211 355.565 178.039C360.946 175.024 370.834 178.33 369.157 185.186C367.358 192.512 355.739 197.293 348.663 198.444C341.098 199.675 331.175 197.536 330.179 189.173C326.772 199.011 326.091 209.416 323.051 219.351C320.377 228.136 315.031 235.85 309.265 243.144C303.57 250.356 297.716 257.6 290.134 263.224C282.831 268.622 273.449 275.283 264.224 277.39C265.273 280.291 265.569 283.322 266.39 286.271C267.054 288.67 268.714 291.15 268.347 293.711C276.681 291.49 285.766 295.769 293.174 298.881C302.329 302.738 310.942 307.455 319.87 311.733C327.872 315.575 336.381 318.751 343.073 324.505C349.747 330.242 355.722 337.26 358.867 345.25C364.947 333.646 365.139 320.55 369.07 308.362C369.996 305.477 371.237 302.641 371.674 299.642C372.058 296.92 371.359 294.521 370.922 291.847C370.031 286.531 372.127 281.911 376.687 278.573C385.72 271.96 398.143 276.093 407.979 271.49C413.133 269.075 417.798 264.002 417.973 258.443C418.165 252.495 413.151 247.633 413.325 241.669C408.835 243.63 403.734 242.965 399.086 241.912C395.714 241.134 390.822 240.356 388.446 237.747C385.493 234.489 390.21 232.058 392.779 230.486C397.356 227.682 401.078 224.1 404.904 220.47C401.096 218.249 403.314 211.053 407.682 214.619C407.28 209.627 404.415 210.794 400.886 213.079C397.496 215.283 393.775 217.244 389.459 216.239C383.204 214.781 382.435 207.86 383.099 202.884C383.536 199.675 384.567 196.353 386.664 193.727C388.044 191.993 395.033 187.358 395.207 192.366C395.312 195.38 390.088 198.606 388.76 201.215C387.834 203.03 386.874 210.745 390.944 208.995C393.722 207.779 393.932 204.035 397.461 203.338C401.707 202.479 403.07 207.73 407.525 204.44C415.055 198.881 401.357 190.696 397.181 187.423C393.355 184.424 389.372 181.523 385.983 178.087C384.41 176.483 382.611 174.651 381.615 172.658C380.235 169.919 382.279 167.893 381.615 165.283C381.231 163.776 380.304 163.89 379.273 162.869C377.875 161.475 378.121 159.676 378.156 157.941C378.191 156.386 377.998 155.235 377.544 153.76C376.915 151.653 377.561 149.724 376.67 147.682C372.896 139.044 366.187 129.919 357.801 124.668C352.716 121.491 348.542 122.642 342.846 123.225C337.063 123.809 330.633 124.506 325.007 122.804C325.094 128.071 315.066 125.089 311.886 125.77C308.147 126.58 306.138 129.887 304.041 132.545C302.329 134.7 299.377 138.168 296.197 136.013C296.476 139.206 297.681 142.966 295.41 145.802C302.119 145.592 297.332 159.757 296.633 162.852C295.917 166.045 295.48 169.287 294.956 172.512C294.362 176.126 293.157 179.66 292.597 183.274C291.602 189.676 295.323 195.916 295.69 202.285C296.389 214.862 284.753 225.153 271.09 221.085C265.429 219.4 259.262 216.029 253.514 219.351C248.849 222.042 246.945 227.503 247.417 232.366C247.906 237.374 250.072 244.262 254.702 247.341C257.76 249.367 261.726 248.33 264.923 250.081C268.155 251.847 270.286 254.991 273.274 257.05C273.152 254.927 272.261 252.479 270.321 251.215C268.452 249.983 265.989 250 264.276 248.492C259.664 244.424 262.145 237.973 265.447 234.019C268.085 230.858 272.837 226.191 277.432 228.995C280.035 230.583 282.499 234.116 283.425 236.823C283.809 237.957 284.176 239.4 283.198 240.389C281.329 242.252 280.875 239.951 279.442 239.351C278.184 238.832 273.868 238.314 272.505 238.8C270.915 239.351 270.584 240.551 270.811 242.025C271.929 249.092 279.791 246.126 284.595 244.748C289.68 243.306 299.534 240.032 299.883 247.941C305.893 240.21 312.812 232.852 316.778 223.938C320.901 214.651 321.443 204.473 323.871 194.765C326.055 186.045 329.567 177.471 336.206 170.81C342.077 164.797 350.847 158.574 360.002 158.736ZM275.231 262.998C272.278 266.628 268.435 269.497 265.028 272.722C270.759 270.615 275.894 267.422 280.961 264.197C278.987 264.1 277.118 263.452 275.231 262.998ZM258.441 213.679C265.884 213.808 272.54 219.124 280.123 217.471C287.164 215.931 290.955 210.129 291.112 203.711C291.304 195.656 286.884 188.395 288.963 180.259C290.012 176.159 290.606 172.204 291.165 168.039C291.777 163.436 293.121 158.946 293.768 154.344C289.295 156.904 283.845 158.233 279.075 160.259C273.432 162.658 267.806 165.105 262.092 167.374C257.55 169.19 252.973 171.053 248.325 172.609C244.743 173.809 239.572 175.056 236.934 171.604C231.518 164.538 248.307 157.941 252.92 156.305C263.053 152.69 273.938 151.394 284.124 147.974C289.645 146.126 292.126 143.388 291.916 137.909C291.671 131.589 291.392 125.251 290.187 119.011C286.675 125.511 282.587 131.734 277.328 137.164C272.995 141.637 267.474 146.321 260.52 144.765C256.799 143.939 254.02 142.723 250.054 143.047C246.193 143.371 242.332 144.392 238.611 145.348C232.601 146.904 227.429 149.238 223.707 153.987C222.17 155.948 217.977 162.577 214.605 160.437C211.128 158.233 215.408 151.296 216.719 148.979C222.676 138.46 232.111 129.336 244.953 126.483C247.871 125.835 250.928 125.495 253.933 125.754C257.183 126.029 260.502 127.115 263.77 126.613C270.846 125.527 272.558 117.245 273.956 111.88C276.541 101.945 282.971 89.1901 295.935 89.3036C302.993 89.3684 308.741 93.3064 312.934 98.2659C317.599 103.76 319.766 110.421 323.924 116.126C327.925 121.637 337.761 119.303 343.893 118.85C345.466 118.736 349.205 119.125 350.218 117.634C351.354 115.965 348.069 112.042 347.301 110.551C344.034 104.149 340.365 98.4928 334.442 93.8737C328.886 89.5464 322.282 86.5158 315.45 84.344C311.554 83.096 307.169 81.4914 303.01 81.4104C299.114 81.3131 296.773 84.5223 292.999 83.5823C285.784 81.7995 278.638 83.7767 271.842 86.3375C273.798 86.2564 275.389 87.8124 274.742 89.6114C274.078 91.4915 271.143 92.4316 269.483 93.3392C264.329 96.1268 259 100.276 252.99 101.297C250.614 101.702 248.203 100.973 245.861 101.67C243.608 102.334 241.633 103.922 239.903 105.365C236.199 108.444 232.74 111.734 228.862 114.652C224.354 118.055 219.479 119.644 214.343 121.945C209.451 124.133 208.734 126.791 207.616 131.378C206.708 135.106 204.681 138.071 200.191 138.071C197.727 138.071 194.216 136.45 192.19 138.444C188.922 141.637 193.15 149.481 194.251 152.885C195.072 155.446 195.701 157.585 194.547 160.146C192.486 164.684 189.551 167.018 189.656 172.334C189.761 177.682 191.525 182.982 190.529 188.347C190.093 190.729 185.707 195.186 189.848 195.753C191.77 196.029 193.29 195.85 195.089 196.807C197.465 198.087 199.247 200.291 200.767 202.366C204.017 206.79 206.988 211.442 209.818 216.094C213.225 221.669 216.125 227.439 219.112 233.208C221.855 238.524 225.438 242.512 230.12 246.466C240.061 254.878 251.12 262.187 260.485 271.199C263.84 267.52 268.12 264.651 271.352 260.874C268.661 259.14 266.6 256.758 264.084 254.829C261.499 252.852 258.983 252.982 255.96 252.09C250.335 250.437 247.189 245.17 245.075 240.421C242.594 234.829 241.651 228.314 244.621 222.722C247.119 217.86 252.344 213.565 258.441 213.679ZM293.593 246.985C287.408 247.066 281.8 249.853 275.79 250.761C276.803 252.657 277.38 254.538 277.625 256.645C277.799 258.038 277.485 258.913 278.917 259.74C281.713 261.328 286.85 259.351 289.243 257.892C291.742 256.385 293.628 254.165 294.676 251.604C295.218 250.307 296.528 246.498 293.593 246.985ZM266.163 242.333C266.303 243.549 266.67 244.813 267.614 245.688C267.02 244.635 266.478 243.435 266.163 242.333ZM412.277 233.776C407.525 233.841 403.174 235.85 398.841 237.406C402.283 238.281 406.267 239.238 409.796 238.265C412.015 237.649 414.321 235.899 412.277 233.776ZM274.479 232.204C272.732 232.463 271.44 233.889 270.321 235.056C272.103 234.57 273.745 233.759 275.248 232.771C275.003 232.576 274.741 232.398 274.479 232.204ZM408.696 222.787C405.359 225.931 402.196 229.254 398.422 231.96C403.384 231.75 411.439 228.363 408.696 222.787ZM352.018 190.94C349.52 190.988 348.279 193.306 346.444 194.473C349.082 194.149 351.668 193.387 354.079 192.382C353.468 191.912 352.962 190.956 352.018 190.94ZM355.548 187.066C355.827 188.055 358.325 190.291 358.937 189.821C357.941 188.768 356.806 187.828 355.548 187.066ZM360.789 183.403C360.981 184.716 361.505 186.061 362.396 187.099C364.283 185.251 363.794 183.468 360.789 183.403ZM359.758 162.933C353.119 162.642 346.741 167.52 342.041 171.313C348.296 169.627 355.041 170.243 361.243 168.46C366.572 166.92 364.632 162.933 359.758 162.933ZM292.789 148.185C287.443 152.074 280.228 153.242 273.816 154.878C266.635 156.726 259.244 158.428 252.308 161.005C249.128 162.188 242.769 164.133 241.197 167.212C239.729 170.097 243.625 169.303 245.373 168.914C252.239 167.374 258.773 164.262 265.15 161.539C270.776 159.141 276.419 156.58 282.185 154.49C285.574 153.274 292.108 152.269 292.789 148.185ZM314.297 115.835C315.992 115.851 317.704 116.078 319.294 116.645C315.311 109.919 312.183 102.091 305.666 97.0341C299.202 92.026 289.925 92.6096 284.613 98.8008C279.424 104.862 278.533 113.015 275.79 120.081C274.165 124.279 271.667 128.671 266.932 130.373C261.219 132.431 254.964 129.368 249.041 130.065C237.248 131.443 227.115 139.498 221.786 149.076C228.827 142.382 240.567 139.174 250.421 138.687C253.286 138.541 255.838 138.882 258.546 139.692C261.114 140.47 263.088 141.377 265.779 140.389C270.444 138.671 274.427 134.101 277.345 130.503C280.28 126.872 282.919 122.95 285.557 119.109C286.693 117.456 287.95 115.64 288.317 113.679C288.788 111.199 287.129 108.979 287.443 106.548C288.09 101.751 293.034 105.624 293.663 108.379C294.135 110.47 293.226 112.61 293.436 114.733C293.716 117.423 294.921 119.968 295.393 122.642C300.338 118.282 307.501 115.77 314.297 115.835ZM314.087 120.033C308.444 120.049 292.125 124.555 298.363 132.204C301.385 129.514 303.046 125.689 306.593 123.452C310.384 121.053 314.857 121.313 319.224 121.378C317.792 120.324 315.869 120.016 314.087 120.033Z" fill="#907766"/>
<path fill-rule="evenodd" clip-rule="evenodd" d="M194.617 133.079C197.326 133.16 200.208 135.235 202.41 132.917C205.013 130.195 203.336 125.608 205.502 122.561C208.996 117.634 216.44 116.937 221.611 114.247C228.495 110.681 233.404 104.457 239.833 100.276C241.406 99.2545 243.118 98.1202 244.988 97.634C247.137 97.0667 249.339 97.5205 251.523 97.1801C256.013 96.467 259.926 93.5821 263.77 91.5075C260.118 91.8641 259.559 89.0442 261.743 86.8725C264.031 84.6034 267.648 83.3553 270.688 82.2207C277.956 79.5303 284.77 78.7039 292.493 79.1091C295.882 79.2873 298.468 77.0993 301.927 77.0831C306.225 77.0669 310.646 78.5254 314.717 79.6923C322.142 81.7993 329.357 84.814 335.594 89.1413C342.181 93.6956 346.899 99.3518 350.078 106.353C351.424 109.303 352.909 112.188 354.237 115.154C355.792 118.655 358.046 119.952 361.348 122.042C367.9 126.208 372.529 132.35 376.391 138.687C377.893 141.167 379.047 144.83 381.143 146.92C383.537 149.303 386.647 149.417 387.258 153.225C388.062 158.266 381.947 167.034 389.232 169.967C391.294 170.794 395.906 170.486 396.238 173.468C396.535 176.013 392.551 176.645 390.525 176.191C396.482 181.588 403.332 186.061 408.992 191.766C411.369 194.165 414.111 197.082 414.356 200.486C414.583 203.727 412.137 205.98 409.586 207.86C411.63 209.53 412.12 212.301 412.137 214.683C412.137 216.045 411.823 217.082 412.33 218.379C412.924 219.886 414.146 220.94 414.461 222.56C415.107 225.899 414.198 228.022 416.295 231.086C417.92 233.468 419.807 235.931 419.335 238.897C418.846 241.96 418.078 243.857 419.178 246.968C420.332 250.242 421.869 253.435 422.271 256.904C422.9 262.609 419.755 267.957 415.317 271.733C410.041 276.207 403.506 277.39 396.588 277.827C390.7 278.2 384.602 278.395 379.623 281.717C373.857 285.558 375.133 289.967 376.338 295.59C377.579 301.393 374.015 307.617 372.599 313.192C369.524 325.315 368.511 339.383 360.858 349.853C359.198 352.122 360.387 354.813 360.124 357.535C359.827 360.582 359.915 363.208 360.544 366.222C361.103 368.897 361.889 371.619 361.68 374.375C361.487 376.887 359.286 379.091 359.304 381.473C359.374 387.567 382.331 397.778 373.543 404.731C370.101 407.454 362.204 405.801 358.133 405.736C350.114 405.623 342.112 405.574 334.092 405.428C318.333 405.152 302.557 404.504 286.797 404.423C271.387 404.342 255.855 405.687 240.48 404.731C233.037 404.277 225.647 402.835 218.169 402.997C213.242 403.094 208.473 404.796 203.598 404.747C190.477 404.618 208.612 387.713 211.425 384.747C216.265 379.658 221.017 374.537 225.07 368.864C228.967 363.419 232.391 357.665 236.724 352.511C240.445 348.07 244.499 343.84 244.586 337.924C244.691 331.555 249.286 327.746 252.203 322.252C255.261 316.515 257.236 310.258 259.647 304.278C260.8 301.425 262.354 298.411 262.966 295.396C263.56 292.43 262.547 289.642 261.865 286.758C260.38 280.485 259.053 275.623 253.933 271.02C248.884 266.482 243.328 262.463 237.912 258.314C232.234 253.97 225.839 249.74 221.261 244.327C217.33 239.675 214.727 234.149 211.967 228.865C209.067 223.306 206.183 217.714 202.707 212.431C200.086 208.428 196.138 201.442 191.071 199.838C188.328 198.962 185.515 199.757 183.803 197.05C182.143 194.424 183.645 192.317 185.008 189.983C188.031 184.781 185.393 178.282 185.323 172.707C185.288 170.032 185.585 167.374 186.615 164.862C187.786 161.993 190.372 159.757 190.581 156.58C190.931 151.199 186.196 146.726 186.528 141.28C186.738 137.05 189.586 132.933 194.617 133.079ZM248.482 341.863C246.019 347.373 242.053 352.008 238.454 356.887C234.732 361.944 231.622 367.357 227.848 372.381C224.092 377.357 219.864 382.025 215.566 386.611C211.356 391.101 206.498 395.315 203.58 400.695C207.005 400.631 210.185 399.221 213.539 398.767C216.859 398.313 220.214 398.524 223.533 398.799C230.434 399.383 237.283 400.404 244.219 400.728C258.196 401.392 272.173 399.837 286.168 400.08C300.075 400.323 313.965 400.841 327.855 401.117C342.042 401.409 356.299 402.608 370.485 401.408C369.664 395.071 361.47 391.7 357.452 387.276C355.809 391.635 353.329 398.248 348.419 400.339C343.352 402.494 339.107 396.336 336.049 393.548C327.086 385.396 317.302 377.276 306.872 370.777C302.172 367.859 297.42 365.218 293.366 361.506C289.418 357.892 285.818 353.986 280.699 351.733C275.51 349.464 269.727 348.718 264.206 347.47C261.376 346.838 258.424 346.222 255.75 345.12C253.287 344.115 251.138 342.43 248.482 341.863ZM264.573 303.84C262.756 308.378 261.831 313.16 260.188 317.746C258.528 322.398 255.611 326.53 253.305 330.923C251.924 333.548 249.286 336.595 252.203 339.01C255.82 342.025 262.494 342.835 267.072 343.824C271.824 344.845 276.646 345.704 281.206 347.341C286.081 349.091 289.872 351.992 293.454 355.428C300.373 362.057 308.969 366.465 316.604 372.316C324.763 378.589 332.991 384.91 340.504 391.862C341.605 392.884 343.719 395.882 345.397 396.076C347.161 396.287 348.121 394.618 349.03 393.467C351.913 389.755 354.849 384.877 354.132 380.112C353.573 376.465 350.9 372.527 348.926 369.35C346.427 365.331 343.02 361.895 340.609 357.811C338.355 353.986 336.504 349.918 333.603 346.466C330.668 342.981 326.894 340.647 322.876 338.394C312.62 332.608 303.307 325.591 293.663 318.994C288.963 315.785 284.141 312.544 278.795 310.323C276.279 309.27 273.571 308.67 271.073 307.6C268.714 306.612 266.879 304.91 264.573 303.84ZM271.702 298.459C267.404 298.459 266.67 300.955 270.513 302.868C274.881 305.056 279.861 306.239 284.299 308.362C295.113 313.516 304.251 321.49 314.018 328.103C323.243 334.342 333.341 338.054 339.613 347.373C342.601 351.814 344.75 356.692 347.877 361.068C351.11 365.574 353.957 370.209 356.962 374.845C357.311 369.529 355.18 364.375 355.355 359.059C355.53 354.18 354.744 350.112 351.913 345.914C346.34 337.632 338.984 329.804 330.825 323.646C326.492 320.372 321.863 317.406 316.674 315.428C311.729 313.564 306.488 312.463 301.788 310.064C291.951 305.072 283.565 298.443 271.702 298.459ZM240.987 347.308C240.969 347.308 240.969 347.308 240.987 347.308ZM360.002 158.736C366.345 158.833 373.019 164.976 367.236 170.259C363.043 174.084 355.443 173.371 350.061 173.955C344.173 174.587 337.168 175.85 334.949 181.701C332.974 186.92 335.071 193.533 341.622 194.489C340.487 191.783 345.553 188.979 347.126 187.326C350.009 184.295 351.686 180.211 355.565 178.039C360.946 175.024 370.834 178.33 369.157 185.186C367.358 192.512 355.739 197.293 348.663 198.444C341.098 199.675 331.175 197.536 330.179 189.173C326.772 199.011 326.091 209.416 323.051 219.351C320.377 228.136 315.031 235.85 309.265 243.144C303.57 250.356 297.716 257.6 290.134 263.224C282.831 268.622 273.449 275.283 264.224 277.39C265.273 280.291 265.569 283.322 266.39 286.271C267.054 288.67 268.714 291.15 268.347 293.711C276.681 291.49 285.766 295.769 293.174 298.881C302.329 302.738 310.942 307.455 319.87 311.733C327.872 315.575 336.381 318.751 343.073 324.505C349.747 330.242 355.722 337.26 358.867 345.25C364.947 333.646 365.139 320.55 369.07 308.362C369.996 305.477 371.237 302.641 371.674 299.642C372.058 296.92 371.359 294.521 370.922 291.847C370.031 286.531 372.127 281.911 376.687 278.573C385.72 271.96 398.143 276.093 407.979 271.49C413.133 269.075 417.798 264.002 417.973 258.443C418.165 252.495 413.151 247.633 413.325 241.669C408.835 243.63 403.734 242.965 399.086 241.912C395.714 241.134 390.822 240.356 388.446 237.747C385.493 234.489 390.21 232.058 392.779 230.486C397.356 227.682 401.078 224.1 404.904 220.47C401.096 218.249 403.314 211.053 407.682 214.619C407.28 209.627 404.415 210.794 400.886 213.079C397.496 215.283 393.775 217.244 389.459 216.239C383.204 214.781 382.435 207.86 383.099 202.884C383.536 199.675 384.567 196.353 386.664 193.727C388.044 191.993 395.033 187.358 395.207 192.366C395.312 195.38 390.088 198.606 388.76 201.215C387.834 203.03 386.874 210.745 390.944 208.995C393.722 207.779 393.932 204.035 397.461 203.338C401.707 202.479 403.07 207.73 407.525 204.44C415.055 198.881 401.357 190.696 397.181 187.423C393.355 184.424 389.372 181.523 385.983 178.087C384.41 176.483 382.611 174.651 381.615 172.658C380.235 169.919 382.279 167.893 381.615 165.283C381.231 163.776 380.304 163.89 379.273 162.869C377.875 161.475 378.121 159.676 378.156 157.941C378.191 156.386 377.998 155.235 377.544 153.76C376.915 151.653 377.561 149.724 376.67 147.682C372.896 139.044 366.187 129.919 357.801 124.668C352.716 121.491 348.542 122.642 342.846 123.225C337.063 123.809 330.633 124.506 325.007 122.804C325.094 128.071 315.066 125.089 311.886 125.77C308.147 126.58 306.138 129.887 304.041 132.545C302.329 134.7 299.377 138.168 296.197 136.013C296.476 139.206 297.681 142.966 295.41 145.802C302.119 145.592 297.332 159.757 296.633 162.852C295.917 166.045 295.48 169.287 294.956 172.512C294.362 176.126 293.157 179.66 292.597 183.274C291.602 189.676 295.323 195.916 295.69 202.285C296.389 214.862 284.753 225.153 271.09 221.085C265.429 219.4 259.262 216.029 253.514 219.351C248.849 222.042 246.945 227.503 247.417 232.366C247.906 237.374 250.072 244.262 254.702 247.341C257.76 249.367 261.726 248.33 264.923 250.081C268.155 251.847 270.286 254.991 273.274 257.05C273.152 254.927 272.261 252.479 270.321 251.215C268.452 249.983 265.989 250 264.276 248.492C259.664 244.424 262.145 237.973 265.447 234.019C268.085 230.858 272.837 226.191 277.432 228.995C280.035 230.583 282.499 234.116 283.425 236.823C283.809 237.957 284.176 239.4 283.198 240.389C281.329 242.252 280.875 239.951 279.442 239.351C278.184 238.832 273.868 238.314 272.505 238.8C270.915 239.351 270.584 240.551 270.811 242.025C271.929 249.092 279.791 246.126 284.595 244.748C289.68 243.306 299.534 240.032 299.883 247.941C305.893 240.21 312.812 232.852 316.778 223.938C320.901 214.651 321.443 204.473 323.871 194.765C326.055 186.045 329.567 177.471 336.206 170.81C342.077 164.797 350.847 158.574 360.002 158.736ZM275.231 262.998C272.278 266.628 268.435 269.497 265.028 272.722C270.759 270.615 275.894 267.422 280.961 264.197C278.987 264.1 277.118 263.452 275.231 262.998ZM258.441 213.679C265.884 213.808 272.54 219.124 280.123 217.471C287.164 215.931 290.955 210.129 291.112 203.711C291.304 195.656 286.884 188.395 288.963 180.259C290.012 176.159 290.606 172.204 291.165 168.039C291.777 163.436 293.121 158.946 293.768 154.344C289.295 156.904 283.845 158.233 279.075 160.259C273.432 162.658 267.806 165.105 262.092 167.374C257.55 169.19 252.973 171.053 248.325 172.609C244.743 173.809 239.572 175.056 236.934 171.604C231.518 164.538 248.307 157.941 252.92 156.305C263.053 152.69 273.938 151.394 284.124 147.974C289.645 146.126 292.126 143.388 291.916 137.909C291.671 131.589 291.392 125.251 290.187 119.011C286.675 125.511 282.587 131.734 277.328 137.164C272.995 141.637 267.474 146.321 260.52 144.765C256.799 143.939 254.02 142.723 250.054 143.047C246.193 143.371 242.332 144.392 238.611 145.348C232.601 146.904 227.429 149.238 223.707 153.987C222.17 155.948 217.977 162.577 214.605 160.437C211.128 158.233 215.408 151.296 216.719 148.979C222.676 138.46 232.111 129.336 244.953 126.483C247.871 125.835 250.928 125.495 253.933 125.754C257.183 126.029 260.502 127.115 263.77 126.613C270.846 125.527 272.558 117.245 273.956 111.88C276.541 101.945 282.971 89.1901 295.935 89.3036C302.993 89.3684 308.741 93.3064 312.934 98.2659C317.599 103.76 319.766 110.421 323.924 116.126C327.925 121.637 337.761 119.303 343.893 118.85C345.466 118.736 349.205 119.125 350.218 117.634C351.354 115.965 348.069 112.042 347.301 110.551C344.034 104.149 340.365 98.4928 334.442 93.8737C328.886 89.5464 322.282 86.5158 315.45 84.344C311.554 83.096 307.169 81.4914 303.01 81.4104C299.114 81.3131 296.773 84.5223 292.999 83.5823C285.784 81.7995 278.638 83.7767 271.842 86.3375C273.798 86.2564 275.389 87.8124 274.742 89.6114C274.078 91.4915 271.143 92.4316 269.483 93.3392C264.329 96.1268 259 100.276 252.99 101.297C250.614 101.702 248.203 100.973 245.861 101.67C243.608 102.334 241.633 103.922 239.903 105.365C236.199 108.444 232.74 111.734 228.862 114.652C224.354 118.055 219.479 119.644 214.343 121.945C209.451 124.133 208.734 126.791 207.616 131.378C206.708 135.106 204.681 138.071 200.191 138.071C197.727 138.071 194.216 136.45 192.19 138.444C188.922 141.637 193.15 149.481 194.251 152.885C195.072 155.446 195.701 157.585 194.547 160.146C192.486 164.684 189.551 167.018 189.656 172.334C189.761 177.682 191.525 182.982 190.529 188.347C190.093 190.729 185.707 195.186 189.848 195.753C191.77 196.029 193.29 195.85 195.089 196.807C197.465 198.087 199.247 200.291 200.767 202.366C204.017 206.79 206.988 211.442 209.818 216.094C213.225 221.669 216.125 227.439 219.112 233.208C221.855 238.524 225.438 242.512 230.12 246.466C240.061 254.878 251.12 262.187 260.485 271.199C263.84 267.52 268.12 264.651 271.352 260.874C268.661 259.14 266.6 256.758 264.084 254.829C261.499 252.852 258.983 252.982 255.96 252.09C250.335 250.437 247.189 245.17 245.075 240.421C242.594 234.829 241.651 228.314 244.621 222.722C247.119 217.86 252.344 213.565 258.441 213.679ZM293.593 246.985C287.408 247.066 281.8 249.853 275.79 250.761C276.803 252.657 277.38 254.538 277.625 256.645C277.799 258.038 277.485 258.913 278.917 259.74C281.713 261.328 286.85 259.351 289.243 257.892C291.742 256.385 293.628 254.165 294.676 251.604C295.218 250.307 296.528 246.498 293.593 246.985ZM266.163 242.333C266.303 243.549 266.67 244.813 267.614 245.688C267.02 244.635 266.478 243.435 266.163 242.333ZM412.277 233.776C407.525 233.841 403.174 235.85 398.841 237.406C402.283 238.281 406.267 239.238 409.796 238.265C412.015 237.649 414.321 235.899 412.277 233.776ZM274.479 232.204C272.732 232.463 271.44 233.889 270.321 235.056C272.103 234.57 273.745 233.759 275.248 232.771C275.003 232.576 274.741 232.398 274.479 232.204ZM408.696 222.787C405.359 225.931 402.196 229.254 398.422 231.96C403.384 231.75 411.439 228.363 408.696 222.787ZM352.018 190.94C349.52 190.988 348.279 193.306 346.444 194.473C349.082 194.149 351.668 193.387 354.079 192.382C353.468 191.912 352.962 190.956 352.018 190.94ZM355.548 187.066C355.827 188.055 358.325 190.291 358.937 189.821C357.941 188.768 356.806 187.828 355.548 187.066ZM360.789 183.403C360.981 184.716 361.505 186.061 362.396 187.099C364.283 185.251 363.794 183.468 360.789 183.403ZM359.758 162.933C353.119 162.642 346.741 167.52 342.041 171.313C348.296 169.627 355.041 170.243 361.243 168.46C366.572 166.92 364.632 162.933 359.758 162.933ZM292.789 148.185C287.443 152.074 280.228 153.242 273.816 154.878C266.635 156.726 259.244 158.428 252.308 161.005C249.128 162.188 242.769 164.133 241.197 167.212C239.729 170.097 243.625 169.303 245.373 168.914C252.239 167.374 258.773 164.262 265.15 161.539C270.776 159.141 276.419 156.58 282.185 154.49C285.574 153.274 292.108 152.269 292.789 148.185ZM314.297 115.835C315.992 115.851 317.704 116.078 319.294 116.645C315.311 109.919 312.183 102.091 305.666 97.0341C299.202 92.026 289.925 92.6096 284.613 98.8008C279.424 104.862 278.533 113.015 275.79 120.081C274.165 124.279 271.667 128.671 266.932 130.373C261.219 132.431 254.964 129.368 249.041 130.065C237.248 131.443 227.115 139.498 221.786 149.076C228.827 142.382 240.567 139.174 250.421 138.687C253.286 138.541 255.838 138.882 258.546 139.692C261.114 140.47 263.088 141.377 265.779 140.389C270.444 138.671 274.427 134.101 277.345 130.503C280.28 126.872 282.919 122.95 285.557 119.109C286.693 117.456 287.95 115.64 288.317 113.679C288.788 111.199 287.129 108.979 287.443 106.548C288.09 101.751 293.034 105.624 293.663 108.379C294.135 110.47 293.226 112.61 293.436 114.733C293.716 117.423 294.921 119.968 295.393 122.642C300.338 118.282 307.501 115.77 314.297 115.835ZM314.087 120.033C308.444 120.049 292.125 124.555 298.363 132.204C301.385 129.514 303.046 125.689 306.593 123.452C310.384 121.053 314.857 121.313 319.224 121.378C317.792 120.324 315.869 120.016 314.087 120.033Z" fill="#896A67"/>
<circle cx="46" cy="150" r="31" fill="#E2CFC1"/>
<circle cx="411" cy="63" r="21" fill="#E2CFC1"/>
<circle cx="235" cy="492" r="39" fill="#E2CFC1"/>
<path fill-rule="evenodd" clip-rule="evenodd" d="M245.01 469.383C244.153 469.354 243.255 469.503 242.355 469.795C240.555 470.379 238.668 471.516 236.732 473.091C235.974 473.708 235.208 474.414 234.44 475.162C233.689 474.433 232.939 473.746 232.197 473.143C230.263 471.569 228.381 470.431 226.585 469.849C224.789 469.267 223.002 469.249 221.534 470.096C220.066 470.943 219.189 472.499 218.795 474.346C218.401 476.192 218.445 478.391 218.84 480.853C218.977 481.708 219.173 482.606 219.396 483.52C218.558 483.774 217.743 484.041 216.988 484.336C214.709 485.226 212.823 486.291 211.449 487.559C210.076 488.826 209.189 490.364 209.189 492.053C209.189 493.742 210.076 495.278 211.449 496.545C212.823 497.813 214.709 498.88 216.988 499.77C217.796 500.086 218.67 500.37 219.573 500.638C219.248 501.851 218.985 503.029 218.806 504.145C218.41 506.608 218.368 508.808 218.763 510.659C219.157 512.509 220.036 514.074 221.511 514.925C222.986 515.777 224.781 515.756 226.581 515.172C228.381 514.589 230.265 513.454 232.201 511.879C232.953 511.267 233.713 510.57 234.474 509.829C235.239 510.574 236.003 511.275 236.758 511.89C238.692 513.463 240.576 514.599 242.372 515.181C244.168 515.763 245.955 515.781 247.423 514.934C248.891 514.087 249.766 512.531 250.16 510.684C250.554 508.838 250.51 506.641 250.115 504.179C249.935 503.06 249.672 501.879 249.346 500.662C250.278 500.387 251.18 500.095 252.012 499.77C254.291 498.88 256.177 497.813 257.551 496.545C258.924 495.278 259.811 493.742 259.811 492.053C259.811 490.364 258.924 488.826 257.551 487.559C256.177 486.291 254.291 485.226 252.012 484.336C251.246 484.037 250.419 483.766 249.567 483.509C249.792 482.589 249.992 481.686 250.13 480.825C250.526 478.361 250.568 476.16 250.173 474.309C249.778 472.458 248.898 470.896 247.423 470.045C246.685 469.619 245.868 469.412 245.01 469.383ZM244.909 471.621C245.447 471.636 245.907 471.764 246.299 471.991C247.085 472.444 247.665 473.327 247.975 474.78C248.285 476.232 248.274 478.195 247.908 480.471C247.783 481.25 247.601 482.076 247.395 482.922C245.145 482.381 242.679 481.979 240.052 481.743C238.732 479.915 237.377 478.25 236.01 476.773C236.733 476.068 237.451 475.408 238.152 474.838C239.941 473.383 241.634 472.393 243.046 471.935C243.753 471.706 244.371 471.607 244.909 471.621ZM224.035 471.628C224.576 471.613 225.196 471.712 225.904 471.942C227.321 472.401 229.017 473.39 230.807 474.846C231.494 475.405 232.196 476.052 232.904 476.741C231.527 478.23 230.16 479.91 228.832 481.753C226.216 481.994 223.76 482.398 221.521 482.942C221.316 482.1 221.135 481.278 221.01 480.503C220.644 478.225 220.635 476.262 220.946 474.805C221.256 473.349 221.841 472.459 222.634 472.002C223.031 471.773 223.494 471.643 224.035 471.628ZM234.474 478.357C235.37 479.332 236.267 480.399 237.155 481.547C236.282 481.511 235.398 481.489 234.5 481.489C233.584 481.489 232.683 481.512 231.793 481.549C232.682 480.4 233.578 479.333 234.474 478.357ZM234.5 483.711C235.996 483.711 237.454 483.772 238.872 483.876C239.848 485.278 240.802 486.765 241.71 488.338C242.509 489.721 243.231 491.102 243.889 492.466C243.224 493.847 242.49 495.247 241.68 496.649C240.968 497.883 240.224 499.055 239.467 500.185C237.865 500.319 236.205 500.393 234.5 500.393C232.754 500.393 231.056 500.314 229.419 500.174C228.675 499.06 227.944 497.906 227.243 496.692C226.435 495.293 225.704 493.896 225.04 492.517C225.707 491.131 226.441 489.726 227.253 488.319C228.157 486.754 229.108 485.275 230.079 483.88C231.512 483.774 232.987 483.711 234.5 483.711ZM241.704 484.151C243.517 484.377 245.22 484.692 246.804 485.069C246.334 486.61 245.755 488.22 245.053 489.881C244.598 489.003 244.126 488.122 243.616 487.238C242.998 486.168 242.354 485.148 241.704 484.151ZM227.178 484.168C226.541 485.147 225.914 486.147 225.309 487.195C224.793 488.09 224.311 488.983 223.85 489.872C223.155 488.221 222.579 486.62 222.112 485.088C223.685 484.71 225.377 484.397 227.178 484.168ZM248.98 485.653C249.76 485.889 250.513 486.135 251.204 486.405C253.305 487.226 254.967 488.197 256.045 489.191C257.122 490.185 257.589 491.133 257.589 492.053C257.589 492.973 257.122 493.921 256.045 494.915C254.967 495.909 253.305 496.881 251.204 497.701C250.436 498.001 249.593 498.273 248.716 498.531C248.091 496.596 247.292 494.578 246.342 492.517C247.435 490.152 248.317 487.845 248.98 485.653ZM219.983 485.664C220.639 487.834 221.51 490.118 222.587 492.459C221.631 494.532 220.828 496.561 220.2 498.507C219.354 498.256 218.539 497.992 217.796 497.701C215.695 496.881 214.033 495.909 212.955 494.915C211.878 493.921 211.411 492.973 211.411 492.053C211.411 491.133 211.878 490.185 212.955 489.191C214.033 488.197 215.695 487.226 217.796 486.405C218.476 486.139 219.217 485.896 219.983 485.664ZM234.5 487C231.475 487 229 489.475 229 492.5C229 495.525 231.475 498 234.5 498C237.525 498 240 495.525 240 492.5C240 489.475 237.525 487 234.5 487ZM223.876 495.102C224.339 495.996 224.82 496.893 225.339 497.792C225.745 498.495 226.16 499.18 226.581 499.852C225.104 499.647 223.699 499.388 222.381 499.081C222.8 497.796 223.302 496.463 223.876 495.102ZM245.081 495.102C245.658 496.466 246.16 497.802 246.581 499.089C245.258 499.396 243.849 499.654 242.368 499.858C242.794 499.178 243.215 498.485 243.627 497.772C244.142 496.88 244.621 495.989 245.081 495.102ZM221.747 501.216C223.738 501.688 225.896 502.05 228.184 502.286C229.711 504.495 231.302 506.48 232.904 508.216C232.188 508.914 231.478 509.569 230.783 510.134C228.995 511.589 227.3 512.577 225.887 513.035C224.474 513.493 223.42 513.432 222.634 512.979C221.849 512.525 221.27 511.643 220.961 510.19C220.651 508.738 220.659 506.777 221.025 504.501C221.191 503.469 221.439 502.363 221.747 501.216ZM247.217 501.225C247.527 502.379 247.776 503.488 247.943 504.527C248.309 506.805 248.318 508.768 248.007 510.225C247.697 511.681 247.116 512.573 246.323 513.03C245.53 513.488 244.466 513.548 243.049 513.088C241.632 512.629 239.936 511.64 238.146 510.184C237.446 509.615 236.732 508.954 236.01 508.25C237.623 506.508 239.225 504.513 240.763 502.29C243.057 502.056 245.22 501.696 247.217 501.225ZM231.054 502.512C232.183 502.573 233.328 502.615 234.5 502.615C235.634 502.615 236.741 502.576 237.834 502.518C236.716 504.026 235.577 505.398 234.442 506.632C233.308 505.395 232.17 504.021 231.054 502.512Z" fill="#f0f0f0"/>
<path d="M406.73 70.0167L400.06 63.5L406.73 56.9833L404.7 55L396 63.5L404.7 72L406.73 70.0167ZM414.27 70.0167L420.94 63.5L414.27 56.9833L416.3 55L425 63.5L416.3 72L414.27 70.0167V70.0167Z" fill="#f0f0f0"/>
<path d="M38.4669 144.571C37.9578 144.571 37.4538 144.469 36.9835 144.27C36.5132 144.07 36.0859 143.778 35.726 143.41C35.366 143.042 35.0805 142.605 34.8857 142.124C34.6909 141.643 34.5907 141.128 34.5907 140.607C34.5907 140.087 34.6909 139.571 34.8857 139.09C35.0805 138.609 35.366 138.172 35.726 137.804C36.0859 137.436 36.5132 137.144 36.9835 136.945C37.4538 136.745 37.9578 136.643 38.4669 136.643C39.4949 136.643 40.4808 137.061 41.2078 137.804C41.9347 138.547 42.3431 139.556 42.3431 140.607C42.3431 141.659 41.9347 142.667 41.2078 143.41C40.4808 144.154 39.4949 144.571 38.4669 144.571V144.571ZM39.7589 147.082C41.3241 146.751 42.7136 145.838 43.6591 144.52C44.6045 143.202 45.0389 141.572 44.8782 139.945C44.7176 138.319 43.9734 136.811 42.7893 135.713C41.6052 134.615 40.0652 134.005 38.4669 134C36.8648 133.998 35.3192 134.606 34.1302 135.704C32.9413 136.802 32.1937 138.313 32.0327 139.943C31.8717 141.573 32.3087 143.207 33.2589 144.526C34.2091 145.845 35.6047 146.756 37.1748 147.082V157.918C35.6096 158.249 34.2202 159.162 33.2747 160.48C32.3292 161.798 31.8949 163.428 32.0555 165.055C32.2161 166.681 32.9604 168.189 34.1445 169.287C35.3286 170.385 36.8685 170.995 38.4669 171C40.069 171.002 41.6145 170.394 42.8035 169.296C43.9925 168.198 44.74 166.687 44.901 165.057C45.062 163.427 44.625 161.793 43.6748 160.474C42.7246 159.155 41.329 158.244 39.7589 157.918V155.143H51.3876C52.236 155.143 53.0761 154.972 53.8599 154.64C54.6437 154.308 55.3559 153.821 55.9558 153.208C56.5557 152.594 57.0315 151.866 57.3562 151.064C57.6809 150.263 57.848 149.403 57.848 148.536V147.082C59.4131 146.751 60.8026 145.838 61.7481 144.52C62.6935 143.202 63.1279 141.572 62.9673 139.945C62.8066 138.319 62.0624 136.811 60.8783 135.713C59.6942 134.615 58.1543 134.005 56.5559 134C54.9538 133.998 53.4082 134.606 52.2193 135.704C51.0303 136.802 50.2827 138.313 50.1217 139.943C49.9607 141.573 50.3977 143.207 51.3479 144.526C52.2981 145.845 53.6937 146.756 55.2638 147.082V148.536C55.2638 149.587 54.8554 150.595 54.1285 151.339C53.4016 152.082 52.4156 152.5 51.3876 152.5H39.7589V147.082ZM56.5559 144.571C56.0469 144.571 55.5428 144.469 55.0725 144.27C54.6022 144.07 54.1749 143.778 53.815 143.41C53.455 143.042 53.1695 142.605 52.9747 142.124C52.7799 141.643 52.6797 141.128 52.6797 140.607C52.6797 140.087 52.7799 139.571 52.9747 139.09C53.1695 138.609 53.455 138.172 53.815 137.804C54.1749 137.436 54.6022 137.144 55.0725 136.945C55.5428 136.745 56.0469 136.643 56.5559 136.643C57.5839 136.643 58.5699 137.061 59.2968 137.804C60.0237 138.547 60.4321 139.556 60.4321 140.607C60.4321 141.659 60.0237 142.667 59.2968 143.41C58.5699 144.154 57.5839 144.571 56.5559 144.571V144.571ZM42.3431 164.393C42.3431 165.444 41.9347 166.453 41.2078 167.196C40.4808 167.939 39.4949 168.357 38.4669 168.357C37.4388 168.357 36.4529 167.939 35.726 167.196C34.999 166.453 34.5907 165.444 34.5907 164.393C34.5907 163.341 34.999 162.333 35.726 161.59C36.4529 160.846 37.4388 160.429 38.4669 160.429C39.4949 160.429 40.4808 160.846 41.2078 161.59C41.9347 162.333 42.3431 163.341 42.3431 164.393V164.393Z" fill="#f0f0f0"/>
</svg>
